Coordinates
version=1
nRows=6
nColumns=63
inDegrees=yes

Units are S.I. units (second, meters, Newtons, ...)
If the header above contains a line with 'inDegrees', this indicates whether rotational values are in degrees (yes) or radians (no).

endheader
time	pelvis_tilt	pelvis_list	pelvis_rotation	pelvis_tx	pelvis_ty	pelvis_tz	hip_flexion_r	hip_adduction_r	hip_rotation_r	knee_angle_r	knee_angle_r_beta	ankle_angle_r	subtalar_angle_r	mtp_angle_r	hip_flexion_l	hip_adduction_l	hip_rotation_l	knee_angle_l	knee_angle_l_beta	ankle_angle_l	subtalar_angle_l	mtp_angle_l	L5_S1_Flex_Ext	L5_S1_Lat_Bending	L5_S1_axial_rotation	L4_L5_Flex_Ext	L4_L5_Lat_Bending	L4_L5_axial_rotation	L3_L4_Flex_Ext	L3_L4_Lat_Bending	L3_L4_axial_rotation	L2_L3_Flex_Ext	L2_L3_Lat_Bending	L2_L3_axial_rotation	L1_L2_Flex_Ext	L1_L2_Lat_Bending	L1_L2_axial_rotation	L1_T12_Flex_Ext	L1_T12_Lat_Bending	L1_T12_axial_rotation	Abs_r3	Abs_r2	Abs_r1	Abs_t1	Abs_t2	neck_flexion	neck_bending	neck_rotation	arm_flex_r	arm_add_r	arm_rot_r	elbow_flex_r	pro_sup_r	wrist_flex_r	wrist_dev_r	arm_flex_l	arm_add_l	arm_rot_l	elbow_flex_l	pro_sup_l	wrist_flex_l	wrist_dev_l
1.433333	-3.809817	-4.257438	94.277604	0.193269	0.486817	1.000113	4.495693	-2.484616	8.240426	3.057325	0.053360	29.650421	-4.836619	0.000000	5.834075	3.871494	9.342088	5.453058	0.095174	25.593518	-13.788968	0.000000	0.159063	-1.015600	0.328031	0.295396	-1.350747	0.348533	0.261325	-2.469329	0.348533	0.181793	-2.469329	0.287027	0.147706	-2.071011	0.266525	0.090889	-1.573164	0.246024	1.136172	-11.488665	1.824412	0.000000	0.000000	21.971550	11.717902	-12.150084	17.390485	-5.045272	-7.839148	108.615446	73.287310	-10.131011	5.127911	13.859995	-13.943086	58.909488	40.237489	85.889998	-6.040092	-0.057254
1.450000	-3.895812	-4.277655	94.164271	0.193539	0.486786	1.000305	4.614476	-2.569981	7.629026	3.134832	0.054713	29.920659	-3.776673	0.000000	5.880225	3.929475	9.163191	5.504434	0.096071	25.371380	-13.702458	0.000000	0.161787	-1.027936	0.385426	0.300454	-1.367155	0.409515	0.265799	-2.499324	0.409515	0.184906	-2.499324	0.337247	0.150235	-2.096168	0.313158	0.092445	-1.592273	0.289069	1.155625	-11.628220	2.143621	0.000000	0.000000	22.041295	11.697844	-12.198393	16.967366	-5.097261	-8.091051	108.802451	72.998739	-10.892016	4.825576	13.981423	-13.951331	59.131795	40.241707	85.873769	-5.982099	0.010691
1.466667	-3.977028	-4.332910	94.008533	0.193891	0.486646	1.000440	4.789065	-2.652122	6.922611	3.251149	0.056743	30.253515	-2.538238	0.000000	5.952722	3.976342	8.945982	5.533488	0.096578	25.211889	-13.567985	0.000000	0.166109	-1.039119	0.459045	0.308480	-1.382028	0.487736	0.272900	-2.526513	0.487736	0.189846	-2.526513	0.401665	0.154249	-2.118971	0.372974	0.094915	-1.609595	0.344284	1.186498	-11.754718	2.553073	0.000000	0.000000	22.263193	11.638734	-12.378654	16.679765	-5.497366	-7.628462	109.388357	73.173328	-11.055237	5.096194	14.100466	-13.914723	59.323765	40.207750	85.905016	-5.939556	0.030217
1.483333	-4.051483	-4.400620	93.859701	0.194309	0.486444	1.000562	4.983295	-2.723222	6.246778	3.393732	0.059232	30.604933	-1.358415	0.000000	6.039384	4.012718	8.742957	5.553603	0.096929	25.103738	-13.405508	0.000000	0.168635	-1.048792	0.520200	0.313173	-1.394893	0.552713	0.277051	-2.550033	0.552713	0.192733	-2.550033	0.455175	0.156595	-2.138697	0.422663	0.096358	-1.624579	0.390150	1.204546	-11.864145	2.893196	0.000000	0.000000	22.571805	11.587597	-12.537083	16.557800	-6.119850	-6.453391	110.228181	73.746540	-10.762354	5.662184	14.128327	-13.878525	59.268912	40.192852	85.995072	-5.958366	-0.053586
1.500000	-4.107665	-4.480823	93.687295	0.194787	0.486182	1.000682	5.192075	-2.771611	5.725407	3.546156	0.061892	30.926940	-0.370837	0.000000	6.136466	4.026744	8.552413	5.558020	0.097006	25.055140	-13.237525	0.000000	0.170084	-1.056162	0.586632	0.315863	-1.404695	0.623296	0.279431	-2.567951	0.623296	0.194389	-2.567951	0.513303	0.157940	-2.153725	0.476638	0.097186	-1.635994	0.439974	1.214892	-11.947511	3.262671	0.000000	0.000000	22.944479	11.492066	-12.816433	16.471595	-6.892869	-4.909118	111.305248	74.743124	-10.089713	6.431189	14.150050	-13.821759	59.174873	40.156448	86.154987	-6.031690	-0.200692
1.516667	-4.152814	-4.554511	93.543563	0.195248	0.485916	1.000790	5.380217	-2.806188	5.351655	3.699017	0.064560	31.200362	0.353084	0.000000	6.224224	4.032211	8.407122	5.547050	0.096814	25.051069	-13.061574	0.000000	0.169723	-1.062393	0.642142	0.315193	-1.412982	0.682275	0.278838	-2.583101	0.682275	0.193977	-2.583101	0.561874	0.157605	-2.166431	0.521740	0.096980	-1.645646	0.481606	1.212316	-12.017998	3.571399	0.000000	0.000000	23.296505	11.419286	-13.116263	16.351611	-7.698186	-3.235216	112.476161	75.872483	-9.216512	7.190210	14.132586	-13.771404	58.971305	40.128897	86.324519	-6.068336	-0.367857
